<svg xmlns="http://www.w3.org/2000/svg" xmlns:xlink="http://www.w3.org/1999/xlink" width="500" zoomAndPan="magnify" viewBox="0 0 375 374.999991" height="500" preserveAspectRatio="xMidYMid meet" version="1.0"><defs><g/><clipPath id="a26337ef2f"><path d="M 130.804688 102.003906 L 244.054688 102.003906 L 244.054688 249.003906 L 130.804688 249.003906 Z M 130.804688 102.003906 " clip-rule="nonzero"/></clipPath><clipPath id="1ed2abb7ed"><path d="M 130.804688 102.003906 L 244.054688 102.003906 L 244.054688 167.253906 L 130.804688 167.253906 Z M 130.804688 102.003906 " clip-rule="nonzero"/></clipPath></defs><rect x="-37.5" width="450" fill="#ffffff" y="-37.499999" height="449.999989" fill-opacity="1"/><g clip-path="url(#a26337ef2f)"><path fill="#ffff00" d="M 228.601562 173.21875 L 228.601562 173.207031 L 244.171875 179.167969 L 244.171875 227.332031 L 187.5 249.027344 L 130.828125 227.332031 L 130.828125 169.136719 L 146.394531 175.097656 L 146.394531 216.621094 C 158.355469 221.203125 177.957031 228.707031 187.5 232.359375 C 187.5 232.359375 228.601562 216.621094 228.601562 216.621094 L 228.601562 189.890625 L 216.972656 185.4375 L 216.972656 168.769531 Z M 146.394531 158.417969 L 146.394531 158.425781 L 130.828125 152.464844 L 130.828125 102.003906 L 244.171875 102.003906 L 244.171875 162.5 L 228.601562 156.539062 L 228.601562 117.570312 C 228.601562 117.570312 146.394531 117.570312 146.394531 117.570312 L 146.394531 141.746094 L 160.945312 147.316406 L 160.945312 127.910156 L 214.054688 127.910156 L 214.054688 201.101562 L 176.511719 201.101562 L 176.511719 217.851562 L 160.945312 211.890625 L 160.945312 163.984375 Z M 176.511719 150.839844 L 176.511719 185.53125 L 198.484375 185.53125 L 198.484375 143.480469 C 198.484375 143.480469 186.832031 143.480469 176.511719 143.480469 Z M 176.511719 150.839844 " fill-opacity="1" fill-rule="evenodd"/></g><g fill="#000000" fill-opacity="1"><g transform="translate(171.116009, 272.208806)"><g><path d="M 7.050781 -3.371094 C 8.742188 -3.679688 9.460938 -4.707031 9.558594 -6.429688 L 9.558594 -7.523438 C 9.558594 -8.792969 8.90625 -9.574219 8.5625 -9.785156 C 7.78125 -10.257812 7 -10.175781 6.351562 -10.226562 L 0.554688 -10.226562 C 0.488281 -10.226562 0.457031 -10.175781 0.441406 -10.09375 C 0.441406 -9.800781 0.441406 -9.507812 0.441406 -9.214844 C 0.421875 -8.335938 0.441406 -7.441406 0.441406 -6.578125 C 0.441406 -6.496094 0.488281 -6.429688 0.554688 -6.449219 C 0.734375 -6.464844 2.148438 -6.578125 2.671875 -6.609375 C 3.355469 -6.644531 4.722656 -6.546875 4.980469 -6.464844 C 5.160156 -6.414062 5.371094 -6.351562 5.488281 -6.15625 C 5.632812 -5.894531 5.355469 -5.570312 4.882812 -5.585938 C 4.265625 -5.601562 1.890625 -5.453125 0.683594 -5.160156 C 0.488281 -5.113281 0.519531 -5.046875 0.503906 -4.980469 C 0.488281 -4.835938 0.472656 -3.859375 0.472656 -3.664062 C 0.472656 -2.75 0.488281 -1.824219 0.457031 -0.894531 C 0.441406 -0.652344 0.421875 -0.128906 0.421875 -0.128906 C 0.421875 -0.0507812 0.457031 0 0.519531 0 L 9.460938 0 C 9.523438 0 9.558594 -0.0507812 9.558594 -0.128906 C 9.558594 -0.128906 9.523438 -1.578125 9.523438 -1.953125 C 9.523438 -2.183594 9.523438 -2.425781 9.507812 -2.671875 C 9.507812 -2.75 9.460938 -2.816406 9.410156 -2.800781 C 8.660156 -2.769531 5.84375 -2.621094 4.65625 -2.71875 C 4.28125 -2.75 4.347656 -3.273438 4.671875 -3.273438 C 5.585938 -3.289062 6.074219 -3.191406 7.050781 -3.371094 Z M 7.050781 -3.371094 "/></g></g></g><g fill="#000000" fill-opacity="1"><g transform="translate(181.142521, 272.208806)"><g><path d="M 9.445312 -5.617188 C 9.445312 -5.648438 9.410156 -5.683594 9.378906 -5.683594 C 9.167969 -5.648438 9.25 -5.632812 8.988281 -5.683594 C 8.839844 -5.699219 8.742188 -5.796875 8.726562 -5.992188 C 8.644531 -7.539062 8.742188 -8.628906 8.777344 -10.160156 C 8.777344 -10.191406 8.742188 -10.226562 8.710938 -10.226562 L 5.371094 -10.226562 C 5.339844 -10.226562 5.324219 -10.191406 5.324219 -10.160156 C 5.339844 -9.65625 5.128906 -6.609375 5.113281 -6.480469 C 5.03125 -6.15625 4.769531 -5.976562 4.476562 -6.074219 C 4.183594 -6.15625 4.167969 -6.398438 4.152344 -6.773438 C 4.136719 -7.082031 4.511719 -9.753906 4.589844 -10.144531 C 4.589844 -10.191406 4.574219 -10.226562 4.527344 -10.226562 L 1.089844 -10.226562 C 1.058594 -10.226562 1.027344 -10.191406 1.027344 -10.160156 C 0.894531 -8.058594 0.554688 -5.992188 0.375 -3.90625 C 0.375 -3.890625 0.375 -3.371094 0.375 -3.890625 C 0.375 -4.414062 0.375 -2.75 0.375 -2.75 C 0.375 -2.71875 0.390625 -2.6875 0.421875 -2.6875 C 0.796875 -2.6875 4.492188 -2.671875 4.882812 -2.621094 C 5.257812 -2.554688 5.308594 -2.164062 5.324219 -2.003906 C 5.339844 -1.742188 5.242188 -0.277344 5.226562 -0.0664062 C 5.226562 -0.03125 5.257812 0.015625 5.292969 0.015625 L 8.726562 0.015625 C 8.757812 0.015625 8.777344 -0.015625 8.792969 -0.0664062 C 8.824219 -0.8125 8.679688 -1.628906 8.757812 -2.214844 C 8.808594 -2.574219 9.003906 -2.671875 9.445312 -2.6875 C 9.492188 -2.6875 9.507812 -2.71875 9.507812 -2.769531 C 9.476562 -3.597656 9.445312 -4.785156 9.445312 -5.617188 Z M 9.445312 -5.617188 "/></g></g></g><g fill="#000000" fill-opacity="1"><g transform="translate(191.03882, 272.208806)"><g><path d="M 9.410156 -8.613281 C 9.410156 -9.132812 9.425781 -10.160156 9.425781 -10.191406 C 9.425781 -10.226562 9.394531 -10.226562 9.394531 -10.226562 L 0.441406 -10.226562 C 0.421875 -10.226562 0.40625 -10.207031 0.40625 -10.191406 C 0.40625 -9.640625 0.390625 -6.203125 0.390625 -5.863281 C 0.390625 -5.828125 0.40625 -5.8125 0.441406 -5.8125 C 0.519531 -5.8125 3.613281 -5.941406 3.710938 -5.796875 C 3.777344 -5.699219 3.792969 -5.617188 3.664062 -5.339844 C 3.46875 -4.933594 2.34375 -3.386719 2.183594 -3.140625 C 1.546875 -2.214844 0.929688 -1.222656 0.503906 -0.0507812 C 0.488281 -0.03125 0.503906 0 0.539062 0 L 6.21875 0 C 6.234375 0 6.269531 0 6.285156 -0.0507812 C 6.382812 -0.261719 8.125 -3.632812 8.5 -4.25 C 8.808594 -4.785156 9.152344 -5.292969 9.445312 -5.863281 C 9.445312 -5.863281 9.460938 -5.894531 9.460938 -5.960938 C 9.460938 -6.269531 9.410156 -8.140625 9.410156 -8.613281 Z M 9.410156 -8.613281 "/></g></g></g><g fill="#000000" fill-opacity="1"><g transform="translate(200.938154, 272.208806)"><g/></g></g><g fill="#000000" fill-opacity="1"><g transform="translate(112.296773, 294.765658)"><g><path d="M 9.605469 -7.230469 C 9.523438 -7.914062 9.230469 -9.019531 8.5 -9.589844 C 7.75 -10.175781 7.214844 -10.226562 6.804688 -10.226562 L 0.519531 -10.226562 C 0.457031 -10.226562 0.441406 -10.207031 0.441406 -10.144531 C 0.441406 -9.785156 0.441406 -9.425781 0.441406 -9.070312 C 0.457031 -7.230469 0.488281 -5.40625 0.488281 -3.566406 C 0.488281 -2.652344 0.421875 -0.179688 0.421875 -0.179688 C 0.421875 -0.0820312 0.488281 0.015625 0.570312 0.015625 L 4.296875 0.015625 C 4.394531 0.015625 4.460938 -0.0820312 4.460938 -0.195312 C 4.445312 -0.554688 4.460938 -1.089844 4.476562 -1.367188 C 4.527344 -1.839844 4.625 -1.988281 5.097656 -1.988281 C 5.453125 -1.988281 6.886719 -2.164062 7.410156 -2.476562 C 7.667969 -2.621094 8.09375 -2.800781 8.644531 -3.386719 C 9.183594 -3.957031 9.394531 -4.625 9.523438 -5.195312 C 9.589844 -5.535156 9.65625 -6.871094 9.605469 -7.230469 Z M 5.519531 -7.113281 C 5.535156 -6.871094 5.519531 -5.699219 5.503906 -5.355469 C 5.488281 -5.160156 5.488281 -4.738281 5.015625 -4.738281 C 4.542969 -4.738281 4.542969 -5.292969 4.527344 -5.535156 C 4.527344 -5.78125 4.542969 -6.855469 4.558594 -7.148438 C 4.574219 -7.3125 4.589844 -7.878906 5.0625 -7.878906 C 5.519531 -7.878906 5.503906 -7.34375 5.519531 -7.113281 Z M 5.519531 -7.113281 "/></g></g></g><g fill="#000000" fill-opacity="1"><g transform="translate(122.355835, 294.765658)"><g><path d="M 8.660156 -3.109375 C 8.5625 -3.320312 8.5 -3.5 8.660156 -3.648438 C 8.660156 -3.648438 8.660156 -3.664062 8.679688 -3.664062 C 8.695312 -3.695312 9.132812 -4.316406 9.296875 -4.707031 C 9.460938 -5.097656 9.574219 -5.976562 9.574219 -6.578125 C 9.574219 -7.441406 9.558594 -8.074219 9.265625 -8.710938 C 9.167969 -8.9375 8.921875 -9.410156 8.53125 -9.738281 C 8.207031 -10.03125 7.800781 -10.242188 7.425781 -10.242188 L 0.519531 -10.242188 C 0.472656 -10.242188 0.472656 -10.191406 0.472656 -10.144531 C 0.503906 -9.101562 0.472656 -7.996094 0.457031 -6.953125 L 0.457031 -4.933594 C 0.472656 -4.6875 0.457031 -1.789062 0.457031 -1.515625 L 0.457031 -0.148438 C 0.457031 -0.0664062 0.488281 0 0.554688 0 L 4.363281 0 C 4.414062 0 4.460938 -0.0664062 4.460938 -0.148438 C 4.429688 -0.847656 4.445312 -1.59375 4.492188 -2.28125 C 4.492188 -2.441406 4.738281 -2.507812 4.820312 -2.410156 C 5.046875 -2.148438 5.667969 -0.421875 5.746094 -0.0820312 C 5.765625 -0.03125 5.796875 0 5.84375 0 L 9.476562 0 C 9.542969 0 9.589844 -0.0820312 9.574219 -0.179688 C 9.507812 -0.472656 9.054688 -2.296875 8.660156 -3.109375 Z M 5.175781 -5.910156 C 5.144531 -5.40625 4.902344 -5.210938 4.671875 -5.226562 C 4.429688 -5.242188 4.429688 -5.488281 4.414062 -5.632812 C 4.394531 -6.023438 4.414062 -6.691406 4.414062 -7.050781 C 4.414062 -7.246094 4.414062 -7.441406 4.414062 -7.570312 C 4.429688 -7.667969 4.542969 -7.765625 4.671875 -7.765625 C 4.882812 -7.765625 5.097656 -7.652344 5.160156 -7.082031 C 5.195312 -6.722656 5.210938 -6.367188 5.175781 -5.910156 Z M 5.175781 -5.910156 "/></g></g></g><g fill="#000000" fill-opacity="1"><g transform="translate(132.366069, 294.765658)"><g><path d="M 0.472656 -10.226562 C 0.457031 -10.207031 0.441406 -10.191406 0.421875 -10.160156 C 0.421875 -9.523438 0.472656 -5.699219 0.488281 -4.429688 C 0.503906 -3.566406 0.554688 -0.636719 0.441406 -0.0664062 C 0.441406 -0.03125 0.472656 0 0.503906 0 L 5.113281 0 C 5.210938 0 5.292969 -0.0820312 5.292969 -0.179688 C 5.226562 -0.945312 5.175781 -1.691406 5.160156 -2.457031 C 5.144531 -3.355469 5.046875 -8.449219 5.160156 -10.046875 C 5.160156 -10.144531 5.078125 -10.226562 4.980469 -10.226562 Z M 0.472656 -10.226562 "/></g></g></g><g fill="#000000" fill-opacity="1"><g transform="translate(138.079228, 294.765658)"><g><path d="M 5.570312 -10.226562 C 5.535156 -10.226562 5.503906 -10.207031 5.503906 -10.175781 C 5.40625 -8.808594 5.160156 -7.996094 5 -6.511719 C 4.980469 -6.269531 4.65625 -6.300781 4.640625 -6.5625 C 4.558594 -8.042969 4.296875 -8.90625 4.234375 -10.160156 C 4.234375 -10.207031 4.199219 -10.226562 4.167969 -10.226562 L 0.34375 -10.226562 C 0.308594 -10.226562 0.292969 -10.207031 0.308594 -10.207031 C 0.40625 -9.785156 0.636719 -7.246094 0.78125 -6.414062 C 0.863281 -5.976562 1.089844 -4.28125 1.15625 -3.859375 C 1.320312 -2.589844 1.398438 -1.285156 1.675781 -0.0507812 C 1.691406 -0.015625 1.710938 0.015625 1.742188 0.015625 L 8.125 0.015625 C 8.15625 0.015625 8.191406 -0.015625 8.191406 -0.0507812 C 8.222656 -0.324219 8.320312 -1.515625 8.449219 -2.507812 C 8.5625 -3.335938 9.28125 -8.433594 9.492188 -10.160156 C 9.492188 -10.191406 9.460938 -10.226562 9.425781 -10.226562 Z M 5.570312 -10.226562 "/></g></g></g><g fill="#000000" fill-opacity="1"><g transform="translate(147.910412, 294.765658)"><g><path d="M 9.835938 -0.878906 C 9.445312 -2.476562 9.117188 -4.101562 8.777344 -5.730469 C 8.464844 -7.214844 8.171875 -8.710938 8.011719 -10.226562 L 2.148438 -10.226562 C 2.117188 -9.949219 2.101562 -9.6875 2.050781 -9.410156 C 1.839844 -7.78125 1.398438 -6.234375 1.140625 -4.609375 C 0.910156 -3.0625 0.714844 -1.496094 0.375 0.015625 L 4.332031 0.015625 C 4.347656 -0.539062 4.394531 -1.074219 4.445312 -1.628906 C 4.492188 -2.296875 4.527344 -2.605469 4.917969 -2.589844 C 5.453125 -2.574219 5.339844 -2.359375 5.421875 -1.953125 C 5.535156 -1.417969 5.585938 -1.058594 5.632812 -0.421875 C 5.648438 -0.292969 5.648438 -0.128906 5.648438 0 L 10.078125 0 C 9.996094 -0.292969 9.914062 -0.585938 9.835938 -0.878906 Z M 4.820312 -7.015625 C 4.835938 -7.179688 4.980469 -7.214844 5.046875 -7.132812 C 5.257812 -6.886719 5.273438 -6.398438 5.292969 -5.976562 C 5.324219 -5.570312 5.390625 -4.851562 5.210938 -4.804688 C 5.160156 -4.804688 5.128906 -4.707031 5.078125 -4.722656 C 5.0625 -4.722656 5.0625 -4.722656 5.046875 -4.722656 C 4.429688 -4.738281 4.640625 -5.699219 4.820312 -7.015625 Z M 4.820312 -7.015625 "/></g></g></g><g fill="#000000" fill-opacity="1"><g transform="translate(158.360122, 294.765658)"><g><path d="M 9.476562 -10.207031 C 9.476562 -10.226562 9.445312 -10.226562 9.445312 -10.226562 L 0.519531 -10.226562 C 0.457031 -10.226562 0.390625 -10.226562 0.390625 -10.128906 C 0.390625 -10.046875 0.375 -8.027344 0.421875 -7.410156 C 0.457031 -7.113281 0.472656 -6.300781 0.472656 -6.300781 L 0.472656 -6.285156 C 0.472656 -6.203125 0.539062 -6.121094 0.601562 -6.121094 C 0.601562 -6.121094 1.53125 -6.136719 1.824219 -6.121094 C 2.066406 -6.105469 2.296875 -6.039062 2.492188 -5.84375 C 2.71875 -5.617188 2.636719 -5.273438 2.671875 -4.933594 C 2.71875 -4.511719 2.589844 -0.847656 2.605469 -0.164062 C 2.605469 -0.0664062 2.671875 0 2.734375 0 L 7.277344 0 C 7.359375 0 7.425781 -0.0664062 7.425781 -0.164062 C 7.425781 -0.40625 7.390625 -5.175781 7.472656 -5.730469 C 7.507812 -5.925781 7.621094 -6.007812 7.667969 -6.058594 C 7.878906 -6.1875 8.839844 -6.074219 9.363281 -6.136719 C 9.425781 -6.15625 9.492188 -6.21875 9.476562 -6.316406 C 9.476562 -6.742188 9.507812 -7.164062 9.523438 -7.570312 C 9.558594 -8.449219 9.476562 -9.328125 9.476562 -10.207031 Z M 9.476562 -10.207031 "/></g></g></g><g fill="#000000" fill-opacity="1"><g transform="translate(168.337799, 294.765658)"><g><path d="M 9.476562 -2.6875 C 9.476562 -2.769531 9.410156 -2.832031 9.347656 -2.832031 C 8.5 -2.800781 5.796875 -2.652344 5.371094 -2.75 C 5.03125 -2.832031 4.640625 -3.125 4.851562 -3.53125 C 5.046875 -3.90625 5.683594 -3.84375 6.023438 -3.859375 C 6.398438 -3.890625 8.582031 -3.792969 9.347656 -3.792969 C 9.410156 -3.792969 9.476562 -3.859375 9.476562 -3.925781 C 9.476562 -4.136719 9.476562 -4.28125 9.476562 -4.511719 L 9.476562 -5.863281 C 9.476562 -5.941406 9.410156 -6.007812 9.347656 -6.007812 C 9.117188 -6.007812 5.308594 -5.960938 5.0625 -6.039062 C 4.851562 -6.105469 4.65625 -6.285156 4.671875 -6.527344 C 4.707031 -6.917969 5.128906 -7.035156 5.453125 -7.066406 C 6.285156 -7.195312 9.347656 -7.113281 9.347656 -7.113281 C 9.425781 -7.113281 9.476562 -7.179688 9.476562 -7.261719 C 9.476562 -7.261719 9.394531 -7.929688 9.410156 -8.253906 C 9.410156 -8.582031 9.445312 -9.558594 9.460938 -9.71875 C 9.476562 -9.898438 9.492188 -10.109375 9.492188 -10.128906 C 9.476562 -10.191406 9.410156 -10.226562 9.363281 -10.226562 L 0.683594 -10.226562 C 0.554688 -10.226562 0.457031 -10.109375 0.472656 -9.980469 C 0.699219 -8.367188 0.503906 -6.742188 0.488281 -5.128906 C 0.472656 -3.484375 0.472656 -1.855469 0.40625 -0.210938 C 0.390625 -0.0976562 0.488281 0 0.617188 0 L 9.410156 0 C 9.492188 0 9.542969 -0.0507812 9.542969 -0.128906 C 9.542969 -0.128906 9.476562 -1.480469 9.476562 -1.789062 C 9.476562 -2.050781 9.476562 -2.410156 9.476562 -2.6875 Z M 9.476562 -2.6875 "/></g></g></g><g fill="#000000" fill-opacity="1"><g transform="translate(178.349261, 294.765658)"><g/></g></g><g fill="#000000" fill-opacity="1"><g transform="translate(181.279086, 294.765658)"><g/></g></g><g fill="#000000" fill-opacity="1"><g transform="translate(184.212761, 294.765658)"><g><path d="M 9.425781 -10.226562 L 3.433594 -10.226562 C 2.929688 -10.226562 2.425781 -10.03125 1.988281 -9.816406 C 1.433594 -9.542969 1.042969 -9.070312 0.796875 -8.515625 C 0.359375 -7.554688 0.226562 -6.429688 0.585938 -5.472656 C 0.78125 -4.980469 1.125 -4.511719 1.5625 -4.21875 C 2.148438 -3.84375 2.816406 -3.777344 3.515625 -3.808594 C 3.957031 -3.828125 5.273438 -4.023438 5.242188 -3.53125 C 5.226562 -3.289062 5.078125 -3.160156 4.867188 -3.09375 C 4.265625 -2.945312 2.441406 -2.914062 1.789062 -2.980469 C 1.660156 -2.980469 0.960938 -2.980469 0.617188 -3.011719 C 0.539062 -3.011719 0.457031 -2.945312 0.457031 -2.867188 C 0.457031 -2.214844 0.503906 -1.5625 0.457031 -0.910156 C 0.421875 -0.652344 0.40625 -0.390625 0.421875 -0.128906 C 0.421875 -0.0507812 0.488281 0 0.554688 0 C 0.554688 0 5.683594 -0.015625 5.925781 -0.015625 C 6.253906 -0.03125 7.082031 0 7.78125 -0.210938 C 8.335938 -0.390625 8.808594 -0.78125 8.988281 -1.058594 C 9.410156 -1.691406 9.507812 -2.34375 9.507812 -2.652344 C 9.507812 -4.722656 8.839844 -5.226562 8.386719 -5.617188 C 7.832031 -6.089844 7.113281 -6.1875 6.398438 -6.234375 C 5.683594 -6.269531 5.421875 -6.1875 4.835938 -6.285156 C 4.671875 -6.316406 4.378906 -6.351562 4.378906 -6.742188 C 4.378906 -7.148438 5.0625 -7.195312 5.878906 -7.214844 C 6.429688 -7.230469 8.289062 -7.097656 9.378906 -7.066406 C 9.460938 -7.050781 9.523438 -7.132812 9.523438 -7.214844 C 9.507812 -7.472656 9.445312 -8.09375 9.445312 -8.351562 C 9.460938 -9.410156 9.507812 -9.507812 9.476562 -10.191406 C 9.460938 -10.207031 9.445312 -10.207031 9.425781 -10.226562 Z M 9.425781 -10.226562 "/></g></g></g><g fill="#000000" fill-opacity="1"><g transform="translate(194.190437, 294.765658)"><g><path d="M 9.476562 -2.6875 C 9.476562 -2.769531 9.410156 -2.832031 9.347656 -2.832031 C 8.5 -2.800781 5.796875 -2.652344 5.371094 -2.75 C 5.03125 -2.832031 4.640625 -3.125 4.851562 -3.53125 C 5.046875 -3.90625 5.683594 -3.84375 6.023438 -3.859375 C 6.398438 -3.890625 8.582031 -3.792969 9.347656 -3.792969 C 9.410156 -3.792969 9.476562 -3.859375 9.476562 -3.925781 C 9.476562 -4.136719 9.476562 -4.28125 9.476562 -4.511719 L 9.476562 -5.863281 C 9.476562 -5.941406 9.410156 -6.007812 9.347656 -6.007812 C 9.117188 -6.007812 5.308594 -5.960938 5.0625 -6.039062 C 4.851562 -6.105469 4.65625 -6.285156 4.671875 -6.527344 C 4.707031 -6.917969 5.128906 -7.035156 5.453125 -7.066406 C 6.285156 -7.195312 9.347656 -7.113281 9.347656 -7.113281 C 9.425781 -7.113281 9.476562 -7.179688 9.476562 -7.261719 C 9.476562 -7.261719 9.394531 -7.929688 9.410156 -8.253906 C 9.410156 -8.582031 9.445312 -9.558594 9.460938 -9.71875 C 9.476562 -9.898438 9.492188 -10.109375 9.492188 -10.128906 C 9.476562 -10.191406 9.410156 -10.226562 9.363281 -10.226562 L 0.683594 -10.226562 C 0.554688 -10.226562 0.457031 -10.109375 0.472656 -9.980469 C 0.699219 -8.367188 0.503906 -6.742188 0.488281 -5.128906 C 0.472656 -3.484375 0.472656 -1.855469 0.40625 -0.210938 C 0.390625 -0.0976562 0.488281 0 0.617188 0 L 9.410156 0 C 9.492188 0 9.542969 -0.0507812 9.542969 -0.128906 C 9.542969 -0.128906 9.476562 -1.480469 9.476562 -1.789062 C 9.476562 -2.050781 9.476562 -2.410156 9.476562 -2.6875 Z M 9.476562 -2.6875 "/></g></g></g><g fill="#000000" fill-opacity="1"><g transform="translate(204.200671, 294.765658)"><g><path d="M 9.523438 -4.296875 C 9.507812 -4.363281 9.445312 -4.414062 9.378906 -4.414062 C 9.3125 -4.414062 6.511719 -4.316406 5.863281 -4.378906 C 5.4375 -4.414062 5.292969 -4.414062 4.917969 -4.625 C 4.738281 -4.738281 4.609375 -4.980469 4.589844 -5.210938 C 4.589844 -5.472656 4.867188 -5.863281 5.503906 -5.863281 C 5.8125 -5.84375 8.9375 -5.941406 9.378906 -5.925781 C 9.460938 -5.925781 9.523438 -5.992188 9.523438 -6.074219 C 9.523438 -6.074219 9.460938 -8.5 9.507812 -8.890625 C 9.507812 -8.988281 9.523438 -9.070312 9.523438 -9.152344 L 9.523438 -9.996094 C 9.523438 -10.078125 9.347656 -10.226562 9.265625 -10.226562 L 4.949219 -10.226562 C 3.746094 -10.226562 2.359375 -10.046875 1.691406 -9.410156 C 1.269531 -9.019531 0.878906 -8.582031 0.683594 -8.042969 C 0.503906 -7.488281 0.390625 -6.804688 0.390625 -6.089844 C 0.390625 -5.355469 0.390625 -6.074219 0.390625 -6.058594 L 0.390625 -4.101562 C 0.390625 -3.402344 0.488281 -2.703125 1.058594 -1.808594 C 1.320312 -1.382812 1.789062 -1.007812 2.246094 -0.734375 C 2.6875 -0.457031 3.5 0 5.570312 0 L 9.378906 0 C 9.460938 0 9.523438 -0.0664062 9.523438 -0.148438 L 9.523438 -1.140625 C 9.445312 -1.9375 9.507812 -3.792969 9.523438 -4.296875 Z M 9.523438 -4.296875 "/></g></g></g><g fill="#000000" fill-opacity="1"><g transform="translate(214.227183, 294.765658)"><g><path d="M 7.765625 -0.246094 C 8.238281 -0.421875 8.644531 -0.796875 9.019531 -1.269531 C 9.558594 -1.953125 9.558594 -3.042969 9.558594 -3.925781 L 9.558594 -10.128906 C 9.558594 -10.175781 9.523438 -10.226562 9.476562 -10.226562 L 5.503906 -10.226562 C 5.453125 -10.226562 5.40625 -10.175781 5.421875 -10.109375 C 5.4375 -9.65625 5.4375 -9.183594 5.421875 -8.726562 C 5.40625 -8.042969 5.40625 -5.78125 5.390625 -5.339844 C 5.371094 -4.902344 5.4375 -4.394531 5.195312 -4.070312 C 5.128906 -3.988281 4.867188 -3.875 4.65625 -4.054688 C 4.445312 -4.234375 4.414062 -4.753906 4.378906 -5.195312 C 4.347656 -5.632812 4.378906 -7.71875 4.378906 -8.320312 C 4.363281 -8.921875 4.363281 -9.523438 4.363281 -10.128906 C 4.363281 -10.191406 4.332031 -10.242188 4.28125 -10.242188 L 0.519531 -10.242188 C 0.472656 -10.242188 0.441406 -10.191406 0.441406 -10.128906 L 0.441406 -3.613281 C 0.441406 -3.011719 0.503906 -1.824219 1.042969 -1.105469 C 1.53125 -0.40625 2.574219 0 3.433594 0 L 6.1875 0 C 6.429688 0 7.148438 0 7.765625 -0.246094 Z M 7.765625 -0.246094 "/></g></g></g><g fill="#000000" fill-opacity="1"><g transform="translate(224.286245, 294.765658)"><g><path d="M 8.660156 -3.109375 C 8.5625 -3.320312 8.5 -3.5 8.660156 -3.648438 C 8.660156 -3.648438 8.660156 -3.664062 8.679688 -3.664062 C 8.695312 -3.695312 9.132812 -4.316406 9.296875 -4.707031 C 9.460938 -5.097656 9.574219 -5.976562 9.574219 -6.578125 C 9.574219 -7.441406 9.558594 -8.074219 9.265625 -8.710938 C 9.167969 -8.9375 8.921875 -9.410156 8.53125 -9.738281 C 8.207031 -10.03125 7.800781 -10.242188 7.425781 -10.242188 L 0.519531 -10.242188 C 0.472656 -10.242188 0.472656 -10.191406 0.472656 -10.144531 C 0.503906 -9.101562 0.472656 -7.996094 0.457031 -6.953125 L 0.457031 -4.933594 C 0.472656 -4.6875 0.457031 -1.789062 0.457031 -1.515625 L 0.457031 -0.148438 C 0.457031 -0.0664062 0.488281 0 0.554688 0 L 4.363281 0 C 4.414062 0 4.460938 -0.0664062 4.460938 -0.148438 C 4.429688 -0.847656 4.445312 -1.59375 4.492188 -2.28125 C 4.492188 -2.441406 4.738281 -2.507812 4.820312 -2.410156 C 5.046875 -2.148438 5.667969 -0.421875 5.746094 -0.0820312 C 5.765625 -0.03125 5.796875 0 5.84375 0 L 9.476562 0 C 9.542969 0 9.589844 -0.0820312 9.574219 -0.179688 C 9.507812 -0.472656 9.054688 -2.296875 8.660156 -3.109375 Z M 5.175781 -5.910156 C 5.144531 -5.40625 4.902344 -5.210938 4.671875 -5.226562 C 4.429688 -5.242188 4.429688 -5.488281 4.414062 -5.632812 C 4.394531 -6.023438 4.414062 -6.691406 4.414062 -7.050781 C 4.414062 -7.246094 4.414062 -7.441406 4.414062 -7.570312 C 4.429688 -7.667969 4.542969 -7.765625 4.671875 -7.765625 C 4.882812 -7.765625 5.097656 -7.652344 5.160156 -7.082031 C 5.195312 -6.722656 5.210938 -6.367188 5.175781 -5.910156 Z M 5.175781 -5.910156 "/></g></g></g><g fill="#000000" fill-opacity="1"><g transform="translate(234.296479, 294.765658)"><g><path d="M 0.472656 -10.226562 C 0.457031 -10.207031 0.441406 -10.191406 0.421875 -10.160156 C 0.421875 -9.523438 0.472656 -5.699219 0.488281 -4.429688 C 0.503906 -3.566406 0.554688 -0.636719 0.441406 -0.0664062 C 0.441406 -0.03125 0.472656 0 0.503906 0 L 5.113281 0 C 5.210938 0 5.292969 -0.0820312 5.292969 -0.179688 C 5.226562 -0.945312 5.175781 -1.691406 5.160156 -2.457031 C 5.144531 -3.355469 5.046875 -8.449219 5.160156 -10.046875 C 5.160156 -10.144531 5.078125 -10.226562 4.980469 -10.226562 Z M 0.472656 -10.226562 "/></g></g></g><g fill="#000000" fill-opacity="1"><g transform="translate(240.009638, 294.765658)"><g><path d="M 9.476562 -10.207031 C 9.476562 -10.226562 9.445312 -10.226562 9.445312 -10.226562 L 0.519531 -10.226562 C 0.457031 -10.226562 0.390625 -10.226562 0.390625 -10.128906 C 0.390625 -10.046875 0.375 -8.027344 0.421875 -7.410156 C 0.457031 -7.113281 0.472656 -6.300781 0.472656 -6.300781 L 0.472656 -6.285156 C 0.472656 -6.203125 0.539062 -6.121094 0.601562 -6.121094 C 0.601562 -6.121094 1.53125 -6.136719 1.824219 -6.121094 C 2.066406 -6.105469 2.296875 -6.039062 2.492188 -5.84375 C 2.71875 -5.617188 2.636719 -5.273438 2.671875 -4.933594 C 2.71875 -4.511719 2.589844 -0.847656 2.605469 -0.164062 C 2.605469 -0.0664062 2.671875 0 2.734375 0 L 7.277344 0 C 7.359375 0 7.425781 -0.0664062 7.425781 -0.164062 C 7.425781 -0.40625 7.390625 -5.175781 7.472656 -5.730469 C 7.507812 -5.925781 7.621094 -6.007812 7.667969 -6.058594 C 7.878906 -6.1875 8.839844 -6.074219 9.363281 -6.136719 C 9.425781 -6.15625 9.492188 -6.21875 9.476562 -6.316406 C 9.476562 -6.742188 9.507812 -7.164062 9.523438 -7.570312 C 9.558594 -8.449219 9.476562 -9.328125 9.476562 -10.207031 Z M 9.476562 -10.207031 "/></g></g></g><g fill="#000000" fill-opacity="1"><g transform="translate(249.987314, 294.765658)"><g><path d="M 5.40625 -10.226562 C 5.390625 -10.226562 5.371094 -10.207031 5.371094 -10.191406 C 5.324219 -9.964844 5.144531 -8.238281 4.980469 -7.636719 C 4.949219 -7.507812 4.882812 -7.410156 4.769531 -7.410156 C 4.671875 -7.410156 4.574219 -7.507812 4.558594 -7.636719 C 4.429688 -8.464844 4.347656 -9.328125 4.296875 -10.175781 C 4.296875 -10.207031 4.28125 -10.226562 4.265625 -10.226562 L 0.34375 -10.226562 C 0.308594 -10.226562 0.292969 -10.191406 0.308594 -10.144531 C 0.390625 -9.835938 0.945312 -7.683594 1.449219 -6.105469 C 1.824219 -4.917969 2.183594 -4.199219 2.230469 -4.054688 C 2.34375 -3.695312 2.394531 -3.695312 2.378906 -3.320312 C 2.378906 -2.945312 2.328125 -0.179688 2.328125 -0.0507812 C 2.328125 -0.015625 2.34375 0 2.378906 0 L 7.035156 0 C 7.066406 0 7.082031 -0.015625 7.082031 -0.0664062 C 7.050781 -0.585938 7.066406 -1.125 7.082031 -1.644531 C 7.097656 -2.050781 7.132812 -2.476562 7.132812 -2.882812 C 7.132812 -3.238281 7.132812 -3.433594 7.195312 -3.777344 C 7.230469 -3.988281 7.878906 -5.195312 8.386719 -6.59375 C 8.824219 -7.832031 9.347656 -9.964844 9.410156 -10.144531 C 9.425781 -10.175781 9.394531 -10.226562 9.363281 -10.226562 Z M 5.40625 -10.226562 "/></g></g></g><g fill="#000000" fill-opacity="1"><g transform="translate(259.757392, 294.765658)"><g/></g></g><g clip-path="url(#1ed2abb7ed)"><path fill="#000000" d="M 228.480469 173.210938 L 228.480469 173.199219 L 244.03125 179.15625 L 244.03125 227.3125 L 187.429688 249.003906 L 130.828125 227.3125 L 130.828125 169.125 L 146.375 175.085938 L 146.375 216.601562 C 158.324219 221.183594 177.898438 228.6875 187.429688 232.335938 C 187.429688 232.335938 228.480469 216.601562 228.480469 216.601562 L 228.480469 189.875 L 216.867188 185.425781 L 216.867188 168.757812 Z M 146.375 158.40625 L 146.375 158.417969 L 130.828125 152.457031 L 130.828125 102.003906 L 244.03125 102.003906 L 244.03125 162.488281 L 228.480469 156.53125 L 228.480469 117.570312 C 228.480469 117.570312 146.375 117.570312 146.375 117.570312 L 146.375 141.738281 L 160.90625 147.308594 L 160.90625 127.90625 L 213.949219 127.90625 L 213.949219 201.085938 L 176.453125 201.085938 L 176.453125 217.835938 L 160.90625 211.875 L 160.90625 163.976562 Z M 176.453125 150.832031 L 176.453125 185.519531 L 198.402344 185.519531 L 198.402344 143.472656 C 198.402344 143.472656 186.761719 143.472656 176.453125 143.472656 Z M 176.453125 150.832031 " fill-opacity="1" fill-rule="evenodd"/></g></svg>