<svg width="468" height="456" viewBox="0 0 468 456" fill="none" xmlns="http://www.w3.org/2000/svg">
<g clip-path="url(#clip0_160_168)">
<path d="M514.8 -45.6H-46.8V501.6H514.8V-45.6Z" fill="white"/>
<mask id="mask0_160_168" style="mask-type:luminance" maskUnits="userSpaceOnUse" x="83" y="9" width="277" height="374">
<path d="M83 9H360V382.566H83V9Z" fill="white"/>
</mask>
<g mask="url(#mask0_160_168)">
<path fill-rule="evenodd" clip-rule="evenodd" d="M322.203 189.976V189.946L360.287 205.094V327.492L221.672 382.626L83.0574 327.492V179.602L121.132 194.751V300.273C150.387 311.917 198.331 330.986 221.672 340.268L322.203 300.273V232.344L293.76 221.027V178.669L322.203 189.976ZM121.132 152.363V152.383L83.0574 137.235V9H360.287V162.737L322.203 147.588V48.5584H121.132V109.995L156.722 124.151V74.8347H286.623V260.833H194.796V303.4L156.722 288.251V166.509L121.132 152.363ZM194.796 133.105V221.265H248.539V114.403C248.539 114.403 220.038 114.403 194.796 114.403V133.105Z" fill="#FFFF00"/>
</g>
<path d="M205.616 405.758C210.365 404.914 212.384 402.103 212.658 397.389V394.396C212.658 390.923 210.826 388.785 209.861 388.208C207.667 386.914 205.473 387.139 203.652 387H187.373C187.186 387 187.099 387.139 187.055 387.363C187.055 388.165 187.055 388.967 187.055 389.768C187 392.173 187.055 394.621 187.055 396.983C187.055 397.207 187.186 397.389 187.373 397.336C187.878 397.293 191.849 396.983 193.319 396.897C195.238 396.801 199.078 397.068 199.802 397.293C200.306 397.432 200.899 397.603 201.228 398.137C201.634 398.853 200.855 399.741 199.527 399.698C197.794 399.655 191.125 400.061 187.735 400.863C187.186 400.991 187.274 401.173 187.23 401.354C187.186 401.75 187.143 404.422 187.143 404.956C187.143 407.458 187.186 409.991 187.099 412.535C187.055 413.197 187 414.629 187 414.629C187 414.843 187.099 414.982 187.274 414.982H212.384C212.559 414.982 212.658 414.843 212.658 414.629C212.658 414.629 212.559 410.664 212.559 409.638C212.559 409.007 212.559 408.345 212.515 407.671C212.515 407.458 212.384 407.276 212.241 407.319C210.135 407.404 202.226 407.81 198.891 407.543C197.838 407.458 198.025 406.025 198.935 406.025C201.502 405.983 202.873 406.25 205.616 405.758Z" fill="black"/>
<path d="M240.497 399.612C240.497 399.527 240.398 399.431 240.31 399.431C239.718 399.527 239.948 399.57 239.213 399.431C238.796 399.388 238.522 399.121 238.478 398.586C238.248 394.354 238.522 391.372 238.621 387.182C238.621 387.096 238.522 387 238.434 387H229.055C228.968 387 228.924 387.096 228.924 387.182C228.968 388.561 228.375 396.897 228.331 397.25C228.101 398.137 227.366 398.629 226.543 398.362C225.721 398.137 225.677 397.475 225.633 396.449C225.589 395.604 226.642 388.293 226.861 387.224C226.861 387.096 226.817 387 226.686 387H217.033C216.945 387 216.857 387.096 216.857 387.182C216.484 392.932 215.53 398.586 215.025 404.294C215.025 404.337 215.025 405.758 215.025 404.337C215.025 402.904 215.025 407.458 215.025 407.458C215.025 407.543 215.069 407.629 215.157 407.629C216.21 407.629 226.587 407.671 227.684 407.81C228.737 407.992 228.88 409.061 228.924 409.499C228.968 410.215 228.693 414.223 228.649 414.8C228.649 414.897 228.737 415.025 228.836 415.025H238.478C238.566 415.025 238.621 414.939 238.665 414.8C238.752 412.759 238.347 410.525 238.566 408.922C238.709 407.939 239.257 407.671 240.497 407.629C240.628 407.629 240.672 407.543 240.672 407.404C240.584 405.138 240.497 401.889 240.497 399.612Z" fill="black"/>
<path d="M268.189 391.414C268.189 389.993 268.233 387.182 268.233 387.096C268.233 387 268.145 387 268.145 387H243.003C242.948 387 242.904 387.053 242.904 387.096C242.904 388.603 242.86 398.009 242.86 398.939C242.86 399.035 242.904 399.078 243.003 399.078C243.222 399.078 251.91 398.725 252.184 399.121C252.371 399.388 252.415 399.612 252.053 400.371C251.504 401.483 248.345 405.715 247.895 406.389C246.107 408.922 244.374 411.637 243.178 414.843C243.134 414.897 243.178 414.982 243.277 414.982H259.227C259.271 414.982 259.369 414.982 259.413 414.843C259.688 414.266 264.58 405.042 265.633 403.353C266.5 401.889 267.465 400.499 268.288 398.939C268.288 398.939 268.332 398.853 268.332 398.672C268.332 397.827 268.189 392.708 268.189 391.414Z" fill="black"/>
<path d="M51.3566 426.783C51.139 425.016 50.362 422.16 48.4247 420.686C46.4355 419.172 45.0162 419.041 43.9284 419.041H27.259C27.0932 419.041 27.0518 419.091 27.0518 419.253C27.0518 420.181 27.0518 421.11 27.0518 422.028C27.0932 426.783 27.1761 431.497 27.1761 436.252C27.1761 438.614 27 445.003 27 445.003C27 445.256 27.1761 445.508 27.3937 445.508H37.2772C37.5362 445.508 37.7123 445.256 37.7123 444.963C37.6709 444.034 37.7123 442.651 37.7538 441.935C37.8885 440.713 38.1475 440.33 39.401 440.33C40.3438 440.33 44.146 439.875 45.5342 439.068C46.218 438.694 47.3472 438.23 48.808 436.716C50.2377 435.242 50.7972 433.516 51.139 432.042C51.3152 431.164 51.4913 427.712 51.3566 426.783ZM40.5199 427.086C40.5614 427.712 40.5199 430.74 40.4785 431.628C40.4371 432.133 40.4371 433.223 39.1835 433.223C37.9299 433.223 37.9299 431.79 37.8885 431.164C37.8885 430.528 37.9299 427.752 37.9713 426.995C38.0128 426.571 38.0542 425.107 39.3078 425.107C40.5199 425.107 40.4785 426.49 40.5199 427.086Z" fill="black"/>
<path d="M75.5279 437.432C75.2689 436.887 75.1032 436.423 75.5279 436.039C75.5279 436.039 75.5279 435.999 75.5797 435.999C75.6212 435.918 76.7815 434.313 77.2166 433.304C77.6518 432.294 77.9522 430.023 77.9522 428.469C77.9522 426.238 77.9108 424.602 77.1338 422.957C76.8748 422.372 76.2221 421.15 75.1861 420.302C74.3262 419.545 73.2487 419 72.2541 419H53.9375C53.8132 419 53.8132 419.131 53.8132 419.252C53.896 421.948 53.8132 424.804 53.7717 427.5V432.718C53.8132 433.354 53.7717 440.844 53.7717 441.551V445.084C53.7717 445.296 53.8546 445.468 54.0307 445.468H64.1318C64.2665 445.468 64.3908 445.296 64.3908 445.084C64.308 443.277 64.3494 441.349 64.4737 439.573C64.4737 439.159 65.1264 438.987 65.344 439.239C65.9448 439.916 67.5921 444.377 67.7993 445.256C67.8511 445.387 67.934 445.468 68.0583 445.468H77.6932C77.8693 445.468 77.9936 445.256 77.9522 445.003C77.7761 444.246 76.5743 439.532 75.5279 437.432ZM66.2867 430.195C66.2039 431.497 65.5615 432.002 64.9503 431.961C64.308 431.921 64.308 431.285 64.2665 430.911C64.2147 429.902 64.2665 428.176 64.2665 427.247C64.2665 426.742 64.2665 426.238 64.2665 425.905C64.308 425.652 64.6084 425.4 64.9503 425.4C65.5097 425.4 66.0795 425.693 66.2453 427.166C66.3385 428.095 66.38 429.014 66.2867 430.195Z" fill="black"/>
<path d="M80.3622 419.041C80.3207 419.091 80.2793 419.131 80.2275 419.212C80.2275 420.858 80.3622 430.74 80.4036 434.021C80.4451 436.252 80.5798 443.822 80.2793 445.296C80.2793 445.387 80.3622 445.468 80.4451 445.468H92.67C92.929 445.468 93.1466 445.256 93.1466 445.003C92.9704 443.025 92.8358 441.097 92.7943 439.118C92.7529 436.797 92.4939 423.634 92.7943 419.505C92.7943 419.253 92.5767 419.041 92.3177 419.041H80.3622Z" fill="black"/>
<path d="M109.034 419.041C108.941 419.041 108.858 419.091 108.858 419.172C108.599 422.705 107.947 424.804 107.522 428.64C107.47 429.266 106.61 429.185 106.569 428.509C106.351 424.683 105.657 422.452 105.491 419.212C105.491 419.091 105.398 419.041 105.315 419.041H95.1726C95.0794 419.041 95.0379 419.091 95.0794 419.091C95.3384 420.181 95.9496 426.743 96.333 428.893C96.5505 430.023 97.1514 434.404 97.3275 435.494C97.7627 438.775 97.9699 442.147 98.7054 445.337C98.7469 445.427 98.7987 445.508 98.8815 445.508H115.81C115.893 445.508 115.986 445.427 115.986 445.337C116.069 444.63 116.328 441.551 116.67 438.987C116.97 436.847 118.877 423.674 119.436 419.212C119.436 419.131 119.353 419.041 119.26 419.041H109.034Z" fill="black"/>
<path d="M146.422 443.197C145.386 439.068 144.516 434.869 143.614 430.659C142.785 426.823 142.008 422.957 141.584 419.041H126.033C125.95 419.757 125.909 420.434 125.774 421.15C125.215 425.36 124.044 429.357 123.36 433.556C122.749 437.554 122.231 441.602 121.33 445.508H131.824C131.866 444.075 131.99 442.692 132.125 441.258C132.249 439.532 132.342 438.735 133.378 438.775C134.798 438.816 134.497 439.371 134.715 440.421C135.015 441.804 135.15 442.732 135.274 444.378C135.316 444.711 135.316 445.135 135.316 445.468H147.064C146.847 444.711 146.629 443.954 146.422 443.197ZM133.119 427.338C133.161 426.914 133.544 426.823 133.72 427.035C134.28 427.671 134.321 428.933 134.373 430.023C134.456 431.073 134.632 432.93 134.155 433.052C134.021 433.052 133.938 433.304 133.803 433.264C133.762 433.264 133.762 433.264 133.72 433.264C132.083 433.223 132.643 430.74 133.119 427.338Z" fill="black"/>
<path d="M173.183 419.091C173.183 419.041 173.1 419.041 173.1 419.041H149.428C149.262 419.041 149.086 419.041 149.086 419.293C149.086 419.505 149.044 424.724 149.169 426.319C149.262 427.086 149.303 429.185 149.303 429.185V429.226C149.303 429.438 149.479 429.65 149.645 429.65C149.645 429.65 152.111 429.609 152.888 429.65C153.53 429.69 154.141 429.862 154.659 430.367C155.26 430.952 155.043 431.84 155.136 432.719C155.26 433.809 154.918 443.277 154.96 445.044C154.96 445.296 155.136 445.468 155.302 445.468H167.35C167.568 445.468 167.744 445.296 167.744 445.044C167.744 444.418 167.651 432.093 167.868 430.659C167.962 430.155 168.262 429.943 168.386 429.811C168.946 429.478 171.495 429.771 172.883 429.609C173.049 429.559 173.225 429.397 173.183 429.145C173.183 428.045 173.266 426.955 173.308 425.905C173.401 423.634 173.183 421.362 173.183 419.091Z" fill="black"/>
<path d="M199.646 438.523C199.646 438.311 199.47 438.149 199.304 438.149C197.056 438.23 189.887 438.614 188.757 438.361C187.856 438.149 186.82 437.392 187.38 436.342C187.898 435.373 189.586 435.535 190.488 435.494C191.482 435.414 197.273 435.666 199.304 435.666C199.47 435.666 199.646 435.494 199.646 435.323C199.646 434.778 199.646 434.404 199.646 433.809V430.316C199.646 430.114 199.47 429.943 199.304 429.943C198.693 429.943 188.592 430.064 187.939 429.862C187.38 429.69 186.862 429.226 186.903 428.6C186.996 427.591 188.115 427.288 188.975 427.207C191.182 426.874 199.304 427.086 199.304 427.086C199.511 427.086 199.646 426.914 199.646 426.702C199.646 426.702 199.428 424.976 199.47 424.138C199.47 423.29 199.563 420.767 199.604 420.353C199.646 419.888 199.687 419.343 199.687 419.293C199.646 419.131 199.47 419.041 199.345 419.041H176.325C175.983 419.041 175.724 419.343 175.766 419.676C176.367 423.845 175.849 428.045 175.807 432.214C175.766 436.464 175.766 440.673 175.59 444.923C175.548 445.215 175.807 445.468 176.149 445.468H199.47C199.687 445.468 199.822 445.337 199.822 445.135C199.822 445.135 199.646 441.642 199.646 440.845C199.646 440.168 199.646 439.24 199.646 438.523Z" fill="black"/>
<path d="M241.615 419.041H225.722C224.386 419.041 223.049 419.545 221.889 420.1C220.418 420.807 219.382 422.028 218.729 423.462C217.569 425.945 217.217 428.852 218.17 431.325C218.688 432.597 219.599 433.809 220.76 434.566C222.314 435.535 224.085 435.706 225.94 435.626C227.11 435.575 230.602 435.071 230.519 436.342C230.477 436.968 230.084 437.301 229.524 437.473C227.929 437.857 223.091 437.937 221.361 437.766C221.019 437.766 219.164 437.766 218.253 437.685C218.045 437.685 217.828 437.857 217.828 438.058C217.828 439.744 217.952 441.43 217.828 443.116C217.735 443.782 217.693 444.458 217.735 445.135C217.735 445.337 217.911 445.468 218.087 445.468C218.087 445.468 231.69 445.427 232.332 445.427C233.202 445.387 235.399 445.468 237.253 444.923C238.724 444.458 239.978 443.449 240.454 442.732C241.573 441.097 241.832 439.411 241.832 438.614C241.832 433.264 240.061 431.961 238.859 430.952C237.388 429.731 235.481 429.478 233.586 429.357C231.69 429.266 230.996 429.478 229.441 429.226C229.006 429.145 228.229 429.054 228.229 428.045C228.229 426.995 230.042 426.874 232.208 426.823C233.668 426.783 238.6 427.126 241.49 427.207C241.708 427.247 241.874 427.035 241.874 426.823C241.832 426.157 241.666 424.552 241.666 423.886C241.708 421.15 241.832 420.898 241.749 419.131C241.708 419.091 241.666 419.091 241.615 419.041Z" fill="black"/>
<path d="M268.212 438.523C268.212 438.311 268.036 438.149 267.87 438.149C265.622 438.23 258.453 438.614 257.323 438.361C256.422 438.149 255.386 437.392 255.946 436.342C256.464 435.373 258.152 435.535 259.054 435.494C260.048 435.414 265.839 435.666 267.87 435.666C268.036 435.666 268.212 435.494 268.212 435.323C268.212 434.778 268.212 434.404 268.212 433.809V430.316C268.212 430.114 268.036 429.943 267.87 429.943C267.259 429.943 257.158 430.064 256.505 429.862C255.946 429.69 255.428 429.226 255.469 428.6C255.562 427.591 256.681 427.288 257.541 427.207C259.748 426.874 267.87 427.086 267.87 427.086C268.077 427.086 268.212 426.914 268.212 426.702C268.212 426.702 267.994 424.976 268.036 424.138C268.036 423.29 268.129 420.767 268.17 420.353C268.212 419.888 268.253 419.343 268.253 419.293C268.212 419.131 268.036 419.041 267.911 419.041H244.891C244.549 419.041 244.29 419.343 244.332 419.676C244.933 423.845 244.415 428.045 244.373 432.214C244.332 436.464 244.332 440.673 244.156 444.923C244.114 445.215 244.373 445.468 244.715 445.468H268.036C268.253 445.468 268.388 445.337 268.388 445.135C268.388 445.135 268.212 441.642 268.212 440.845C268.212 440.168 268.212 439.24 268.212 438.523Z" fill="black"/>
<path d="M294.885 434.364C294.844 434.192 294.678 434.061 294.502 434.061C294.326 434.061 286.898 434.313 285.178 434.152C284.049 434.061 283.665 434.061 282.671 433.516C282.194 433.223 281.852 432.597 281.8 432.002C281.8 431.325 282.536 430.316 284.225 430.316C285.043 430.367 293.331 430.114 294.502 430.155C294.719 430.155 294.885 429.983 294.885 429.771C294.885 429.771 294.719 423.502 294.844 422.493C294.844 422.24 294.885 422.028 294.885 421.817V419.636C294.885 419.424 294.419 419.041 294.201 419.041H282.754C279.563 419.041 275.885 419.505 274.113 421.15C272.994 422.16 271.958 423.29 271.44 424.683C270.964 426.117 270.663 427.883 270.663 429.731C270.663 431.628 270.663 429.771 270.663 429.811V434.869C270.663 436.676 270.922 438.482 272.435 440.794C273.129 441.894 274.372 442.863 275.584 443.57C276.755 444.287 278.91 445.468 284.401 445.468H294.502C294.719 445.468 294.885 445.296 294.885 445.084V442.52C294.678 440.461 294.844 435.666 294.885 434.364Z" fill="black"/>
<path d="M316.815 444.832C318.069 444.377 319.146 443.408 320.141 442.187C321.571 440.42 321.571 437.604 321.571 435.323V419.293C321.571 419.172 321.477 419.04 321.353 419.04H310.817C310.682 419.04 310.558 419.172 310.599 419.343C310.641 420.514 310.641 421.736 310.599 422.917C310.558 424.683 310.558 430.528 310.516 431.669C310.465 432.799 310.641 434.111 309.998 434.949C309.822 435.161 309.128 435.454 308.569 434.99C308.009 434.525 307.926 433.183 307.833 432.042C307.75 430.911 307.833 425.521 307.833 423.966C307.792 422.412 307.792 420.857 307.792 419.293C307.792 419.131 307.709 419 307.574 419H297.597C297.473 419 297.39 419.131 297.39 419.293V436.13C297.39 437.685 297.556 440.754 298.986 442.611C300.281 444.418 303.047 445.468 305.326 445.468H312.63C313.272 445.468 315.178 445.468 316.815 444.832Z" fill="black"/>
<path d="M345.866 437.432C345.607 436.887 345.441 436.423 345.866 436.039C345.866 436.039 345.866 435.999 345.918 435.999C345.959 435.918 347.12 434.313 347.555 433.304C347.99 432.294 348.291 430.023 348.291 428.469C348.291 426.238 348.249 424.602 347.472 422.957C347.213 422.372 346.56 421.15 345.524 420.302C344.664 419.545 343.587 419 342.592 419H324.276C324.151 419 324.151 419.131 324.151 419.252C324.234 421.948 324.151 424.804 324.11 427.5V432.718C324.151 433.354 324.11 440.844 324.11 441.551V445.084C324.11 445.296 324.193 445.468 324.369 445.468H334.47C334.605 445.468 334.729 445.296 334.729 445.084C334.646 443.277 334.688 441.349 334.812 439.573C334.812 439.159 335.465 438.987 335.682 439.239C336.283 439.916 337.93 444.377 338.138 445.256C338.189 445.387 338.272 445.468 338.397 445.468H348.032C348.208 445.468 348.332 445.256 348.291 445.003C348.114 444.246 346.913 439.532 345.866 437.432ZM336.625 430.195C336.542 431.497 335.9 432.002 335.289 431.961C334.646 431.921 334.646 431.285 334.605 430.911C334.553 429.902 334.605 428.176 334.605 427.247C334.605 426.742 334.605 426.238 334.605 425.905C334.646 425.652 334.947 425.4 335.289 425.4C335.848 425.4 336.418 425.693 336.584 427.166C336.677 428.095 336.718 429.014 336.625 430.195Z" fill="black"/>
<path d="M350.701 419.041C350.659 419.091 350.618 419.131 350.566 419.212C350.566 420.858 350.701 430.74 350.742 434.021C350.783 436.252 350.918 443.822 350.618 445.296C350.618 445.387 350.701 445.468 350.783 445.468H363.008C363.267 445.468 363.485 445.256 363.485 445.003C363.309 443.025 363.174 441.097 363.133 439.118C363.091 436.797 362.832 423.634 363.133 419.505C363.133 419.253 362.915 419.041 362.656 419.041H350.701Z" fill="black"/>
<path d="M389.733 419.091C389.733 419.041 389.65 419.041 389.65 419.041H365.977C365.812 419.041 365.635 419.041 365.635 419.293C365.635 419.505 365.594 424.724 365.718 426.319C365.812 427.086 365.853 429.185 365.853 429.185V429.226C365.853 429.438 366.029 429.65 366.195 429.65C366.195 429.65 368.661 429.609 369.438 429.65C370.08 429.69 370.691 429.862 371.209 430.367C371.81 430.952 371.592 431.84 371.686 432.719C371.81 433.809 371.468 443.277 371.51 445.044C371.51 445.296 371.686 445.468 371.851 445.468H383.9C384.118 445.468 384.294 445.296 384.294 445.044C384.294 444.418 384.201 432.093 384.418 430.659C384.511 430.155 384.812 429.943 384.936 429.811C385.496 429.478 388.044 429.771 389.433 429.609C389.598 429.559 389.774 429.397 389.733 429.145C389.733 428.045 389.816 426.955 389.857 425.905C389.951 423.634 389.733 421.362 389.733 419.091Z" fill="black"/>
<path d="M405.4 419.041C405.359 419.041 405.307 419.091 405.307 419.131C405.183 419.717 404.706 424.179 404.271 425.733C404.188 426.066 404.012 426.319 403.712 426.319C403.453 426.319 403.194 426.066 403.152 425.733C402.81 423.593 402.593 421.362 402.458 419.172C402.458 419.091 402.417 419.041 402.375 419.041H391.974C391.88 419.041 391.839 419.131 391.88 419.253C392.098 420.05 393.569 425.612 394.906 429.69C395.9 432.759 396.853 434.616 396.978 434.99C397.278 435.918 397.413 435.918 397.371 436.888C397.371 437.857 397.237 445.003 397.237 445.337C397.237 445.427 397.278 445.468 397.371 445.468H409.721C409.803 445.468 409.845 445.427 409.845 445.296C409.762 443.954 409.803 442.561 409.845 441.218C409.886 440.168 409.98 439.068 409.98 438.018C409.98 437.1 409.98 436.595 410.145 435.706C410.239 435.161 411.958 432.042 413.305 428.428C414.465 425.228 415.854 419.717 416.02 419.253C416.061 419.172 415.978 419.041 415.895 419.041H405.4Z" fill="black"/>
<mask id="mask1_160_168" style="mask-type:luminance" maskUnits="userSpaceOnUse" x="83" y="9" width="277" height="166">
<path d="M83 9H360V174.818H83V9Z" fill="white"/>
</mask>
<g mask="url(#mask1_160_168)">
<path fill-rule="evenodd" clip-rule="evenodd" d="M321.907 189.956V189.926L359.943 205.065V327.442L221.5 382.566L83.0574 327.442V179.573L121.084 194.721V300.223C150.311 311.867 198.187 330.937 221.5 340.208L321.907 300.223V232.304L293.502 220.997V178.639L321.907 189.956ZM121.084 152.333V152.363L83.0574 137.215V9H359.943V162.707L321.907 147.568V48.5584H121.084V109.976L156.626 124.131V74.8247H286.365V260.794H194.652V303.36L156.626 288.212V166.489L121.084 152.333ZM194.652 133.085V221.235H248.338V114.383C248.338 114.383 219.866 114.383 194.652 114.383V133.085Z" fill="black"/>
</g>
</g>
<defs>
<clipPath id="clip0_160_168">
<rect width="468" height="456" fill="white"/>
</clipPath>
</defs>
</svg>
